<?xml version="1.0" standalone="no"?>
<!DOCTYPE svg PUBLIC "-//W3C//DTD SVG 20010904//EN"
 "http://www.w3.org/TR/2001/REC-SVG-20010904/DTD/svg10.dtd">
<svg version="1.0" xmlns="http://www.w3.org/2000/svg"
 width="592.000000pt" height="592.000000pt" viewBox="0 0 592.000000 592.000000"
 preserveAspectRatio="xMidYMid meet">
<metadata>
Created by potrace 1.14, written by Peter Selinger 2001-2017
</metadata>
<g transform="translate(0.000000,592.000000) scale(0.100000,-0.100000)"
fill="#000000" stroke="none">
<path d="M2926 5505 c-9 -13 -16 -27 -16 -29 0 -3 -14 -29 -31 -58 -18 -29
-40 -68 -50 -85 -11 -18 -29 -50 -41 -70 -12 -21 -38 -67 -58 -103 -20 -36
-60 -105 -88 -154 -29 -49 -52 -90 -52 -92 0 -2 -14 -27 -31 -56 -18 -29 -40
-68 -51 -87 -11 -19 -64 -111 -118 -206 -54 -95 -108 -189 -119 -209 -12 -20
-31 -53 -42 -73 -12 -21 -36 -63 -52 -93 -17 -30 -34 -56 -39 -58 -4 -2 -8 -8
-8 -13 0 -5 -19 -42 -41 -82 -23 -40 -53 -92 -67 -116 -14 -25 -38 -67 -53
-93 -16 -27 -29 -53 -29 -58 0 -6 -4 -10 -8 -10 -4 0 -15 -15 -23 -32 -9 -18
-62 -114 -119 -213 -57 -99 -110 -192 -117 -207 -8 -15 -18 -30 -24 -33 -5 -4
-9 -15 -9 -25 0 -10 -4 -20 -8 -22 -4 -1 -19 -23 -33 -48 -24 -42 -34 -60 -91
-157 -12 -21 -38 -67 -58 -103 -20 -36 -56 -97 -78 -137 -23 -39 -50 -87 -60
-105 -11 -18 -64 -112 -119 -208 -55 -96 -106 -186 -114 -200 -8 -14 -16 -27
-19 -30 -3 -3 -12 -19 -21 -35 -29 -58 -64 -120 -69 -125 -3 -3 -13 -21 -24
-40 -10 -19 -28 -51 -39 -70 -21 -38 -64 -113 -81 -145 -6 -11 -13 -22 -16
-25 -3 -3 -12 -19 -21 -35 -9 -17 -39 -70 -67 -119 -29 -49 -52 -90 -52 -92 0
-2 -14 -27 -31 -56 -18 -29 -39 -66 -49 -83 -9 -16 -117 -205 -240 -420 -123
-214 -234 -410 -248 -434 -14 -25 -38 -67 -53 -93 -16 -27 -29 -53 -29 -58 0
-4 -6 -10 -12 -13 -7 -3 1311 -5 2930 -5 1618 0 2942 3 2942 8 0 4 -16 37 -36
72 -20 34 -48 83 -62 108 -14 25 -58 101 -97 170 -40 69 -83 143 -95 165 -30
53 -99 176 -110 195 -75 129 -110 192 -110 200 0 6 -4 10 -9 10 -5 0 -14 15
-21 33 -8 17 -19 39 -25 47 -7 8 -26 40 -42 70 -17 30 -47 84 -68 120 -21 36
-51 90 -68 120 -16 30 -37 66 -46 80 -9 14 -23 39 -31 55 -8 17 -18 32 -21 35
-3 3 -23 37 -43 75 -21 39 -51 92 -67 119 -17 27 -45 76 -63 110 -18 33 -56
100 -85 148 -28 48 -51 91 -51 97 0 6 -4 11 -9 11 -5 0 -14 15 -21 33 -8 17
-19 39 -25 47 -7 8 -25 38 -40 65 -32 59 -102 183 -115 205 -17 28 -95 164
-130 227 -19 34 -59 103 -87 153 -29 50 -53 95 -53 100 0 6 -3 10 -7 10 -5 0
-13 10 -19 23 -21 43 -77 142 -96 169 -10 14 -18 28 -18 31 0 3 -23 45 -51 94
-29 48 -62 106 -74 128 -13 22 -55 96 -94 164 -39 68 -71 127 -71 131 0 3 -7
15 -15 25 -13 17 -148 249 -223 385 -13 25 -49 86 -78 137 -30 51 -54 97 -54
102 0 6 -4 11 -9 11 -5 0 -14 15 -21 33 -8 17 -19 39 -25 47 -7 8 -24 35 -37
60 -23 42 -273 480 -340 595 -16 28 -36 65 -45 83 -20 38 -26 39 -47 7z"/>
</g>
</svg>
